<svg xmlns="http://www.w3.org/2000/svg" viewBox="0 0 429.43 245.15"><title>faces</title><g id="Layer_2" data-name="Layer 2"><g id="Livello_1" data-name="Livello 1"><path d="M30.91,101V77.49l20.5-44h30.5v-26h61V67s19.5-11.5,16.5,11.5c0,0-1.37,14.61.31,22.55s-13.31,10.95-18.81,8.45l.5,48.5h-46v-18.5s-17,1-12.47-21.5L85.57,101H30.91Z" style="fill:none;stroke:#1e1e1c;stroke-miterlimit:10;stroke-width:3px"/><path d="M141.41,158v38h-29.5s7.33,16.67,2,22-10,2.67-10,2.67v23H35.24V200.82s-11.67,12.83-16-10.5c0,0-36.33-13.33-5-32.33,13.33-3.67,16.67,7.33,16.67,7.33V101H85.57l-3.12,19.69S78.85,139,95.38,139.49V158Z" style="fill:none;stroke:#1e1e1c;stroke-miterlimit:10;stroke-width:3px"/><path d="M103.91,243.65H219.24v-45h0V162H204.57V109.32h-52s-6,2.34-11.67.17l.5,86.5h-29.5s12.67,27.33-8,24.67v23Z" style="fill:none;stroke:#1e1e1c;stroke-miterlimit:10;stroke-width:3px"/><path d="M142.91,7.49H255.57V60s6-8.33,13-1.33S271.24,76.32,262.9,71s10,17.32-7.33,20.49l.67,70.17-51.66.33V109.32h-52s9.61-2.28,6.8-10.3a110.88,110.88,0,0,1,.31-23.69s2.22-18-16.78-8.34V7.49Z" style="fill:none;stroke:#1e1e1c;stroke-miterlimit:10;stroke-width:3px"/><path d="M391,116.45h22.4v55.9s2.5,7.14,8.5,4.14,13.5,9.5-10.5,36l.5,31.17H316.4V203.49s40.66-30-.17-43.5h50.33l.47-43.54Z" style="fill:none;stroke:#1e1e1c;stroke-miterlimit:10;stroke-width:3px"/><path d="M219.24,243.65H316.4V203.49s40.66-30-.17-43.5V87.32l-54.2.53s-1.55,2.62-6.46,3.62l.67,70.17-37,.24v36.76h0Z" style="fill:none;stroke:#1e1e1c;stroke-miterlimit:10;stroke-width:3px"/><circle cx="103.91" cy="42" r="10.51" style="fill:none;stroke:#1e1e1c;stroke-miterlimit:10"/><circle cx="185.41" cy="147.99" r="14" style="fill:none;stroke:#1e1e1c;stroke-miterlimit:10"/><circle cx="276.91" cy="151.49" r="9" style="fill:none;stroke:#1e1e1c;stroke-miterlimit:10"/><circle cx="340.41" cy="52.52" r="9" style="fill:none;stroke:#1e1e1c;stroke-miterlimit:10"/><ellipse cx="212.84" cy="37.53" rx="10.75" ry="16" transform="translate(123.82 234.46) rotate(-75.68)" style="fill:#1e1e1c"/><path d="M94.38,148H68.91s-4.5,10,7,10S94.38,148,94.38,148Z" style="fill:none;stroke:#1e1e1c;stroke-miterlimit:10"/><path d="M94.38,37.58l19.88,6.18s1.63-9-7.11-11.75S94.38,37.58,94.38,37.58Z" style="fill:#1e1e1c"/><path d="M272.07,143.91s9.09-.17,13.84,9.83c0,0,1-7.25-4.75-10S272.07,143.91,272.07,143.91Z" style="fill:#1e1e1c"/><path d="M99.36,39.13s-1.21,3.65,1.54,4.63,3.47-3.07,3.47-3.07l-.47-4.45Z" style="fill:#1e1e1c"/><path d="M76.91,148s.25,3.5,3,3.5,3-3.34,3-3.34Z" style="fill:#1e1e1c"/><circle cx="340.41" cy="52.13" r="2.63" style="fill:#1e1e1c"/><ellipse cx="188.28" cy="148.36" rx="2.88" ry="4.63" style="fill:#1e1e1c"/><ellipse cx="275.66" cy="147.99" rx="4.99" ry="5.11" style="fill:#1e1e1c"/><path d="M85.57,101s8.5-4.45,16.17,0,19.67,28.44,16.67,34.44-23,4-23,4-12.55,1.25-13.26-14.75Z" style="fill:#1e1e1c"/><path d="M64.41,137.24a5,5,0,0,1,.22-.79,10.26,10.26,0,0,1,.93-2,11.62,11.62,0,0,1,.83-1.2,11.24,11.24,0,0,1,1.13-1.19l.65-.58.73-.52a14.17,14.17,0,0,1,1.58-.9c.56-.23,1.14-.44,1.71-.63s1.16-.28,1.71-.37S75,129,75.52,129s1,0,1.45.05a6.06,6.06,0,0,1,1.21.14l.92.17.8.17-.81,0h-.93a9.35,9.35,0,0,0-1.19.07l-1.39.12c-.49.09-1,.19-1.53.27s-1,.3-1.59.43-1.05.4-1.57.61a13.13,13.13,0,0,0-1.48.81l-.69.45-.64.5c-.43.31-.78.7-1.15,1s-.66.69-.92,1a13.42,13.42,0,0,0-1.22,1.71C64.54,137,64.41,137.24,64.41,137.24Z" style="fill:#1e1e1c"/><line x1="23.16" y1="119.44" x2="37.91" y2="119.44" style="fill:none;stroke:#1e1e1c;stroke-miterlimit:10"/><line x1="23.16" y1="129.27" x2="37.91" y2="129.27" style="fill:none;stroke:#1e1e1c;stroke-miterlimit:10"/><line x1="26.41" y1="137.24" x2="37.91" y2="137.24" style="fill:none;stroke:#1e1e1c;stroke-miterlimit:10"/><path d="M15.16,184a12.86,12.86,0,0,1-1.18-2,15.67,15.67,0,0,1-.85-2.22c-.09-.39-.2-.77-.28-1.16s-.13-.79-.16-1.19,0-.81,0-1.21L12.8,175l.3-1.18c.12-.39.31-.75.47-1.13a6.11,6.11,0,0,1,.61-1.06l.33-.52c.13-.16.27-.31.4-.46s.55-.61.84-.89l1-.76c.17-.13.29-.24.5-.39l.5-.3,1-.6a12.42,12.42,0,0,1,2.32-.87,8.81,8.81,0,0,1,2.45-.31c.42,0,.83.05,1.24.11l1.21.32,1.14.5c.36.21.7.44,1.05.66s.64.52,1,.79.56.6.85.89a11.9,11.9,0,0,1,1.36,2,11.67,11.67,0,0,1,.9,2.27c.11.39.15.8.23,1.2s0,.82.07,1.23l.07,1.24-.74-1a11.32,11.32,0,0,0-2-2,6.48,6.48,0,0,0-.57-.42,6.67,6.67,0,0,0-.6-.36c-.21-.1-.41-.22-.63-.3l-.66-.23-.68-.12c-.23,0-.46,0-.69,0a3.23,3.23,0,0,0-.68.13,2.17,2.17,0,0,0-.65.25,2.87,2.87,0,0,0-.62.35l-.57.44a3.91,3.91,0,0,0-.51.51l-.5.53.44-.58a3.83,3.83,0,0,1,.47-.56l.55-.5a3.14,3.14,0,0,1,.62-.41,2.36,2.36,0,0,1,.68-.32,3.65,3.65,0,0,1,.73-.2c.25,0,.51-.06.76-.06l.76.08.73.2c.24.08.46.2.7.3a7.2,7.2,0,0,1,.66.36,6.53,6.53,0,0,1,.63.42,11.22,11.22,0,0,1,1.15,1,11.53,11.53,0,0,1,1,1.1l-.67.22c0-.37-.06-.74-.12-1.11s-.14-.74-.26-1.09a10.8,10.8,0,0,0-.86-2.08,11,11,0,0,0-1.28-1.85c-.26-.27-.5-.56-.78-.8s-.57-.48-.87-.7-.63-.39-.95-.57l-1-.43-1.07-.27c-.36-.06-.73-.07-1.09-.11a7.92,7.92,0,0,0-2.19.25,11.85,11.85,0,0,0-2.09.74l-1,.59-.51.3-.43.33-.9.69c-.28.25-.52.54-.79.81s-.27.26-.39.41l-.32.46a5.48,5.48,0,0,0-.61.94c-.16.34-.35.67-.48,1l-.33,1.08-.17,1.12c0,.38,0,.76,0,1.14s.06.76.08,1.15.13.76.19,1.14a15.42,15.42,0,0,0,.67,2.23A15.69,15.69,0,0,0,15.16,184Z" style="fill:#1e1e1c"/><path d="M23.16,193.24a11.14,11.14,0,0,0,1.15.66,10.82,10.82,0,0,0,1.38.59,8.54,8.54,0,0,0,1.87.41,4.54,4.54,0,0,0,2.15-.28,4.67,4.67,0,0,0,1.89-1.44,2.83,2.83,0,0,0,.84-2.17,3.69,3.69,0,0,0-1.35-2.09,21.53,21.53,0,0,0-2.23-1.72,13.31,13.31,0,0,1-2.24-1.83,2,2,0,0,1-.61-1.53,3.2,3.2,0,0,1,.5-1.33,9,9,0,0,1,1.61-1.82A20.24,20.24,0,0,1,31,178.64c.73-.44,1.17-.65,1.17-.65s-.39.29-1.05.81a27.58,27.58,0,0,0-2.59,2.31,8.43,8.43,0,0,0-1.37,1.78,2.15,2.15,0,0,0-.21.49,1.78,1.78,0,0,0-.1.58,1.33,1.33,0,0,0,.45.84,14.75,14.75,0,0,0,2.14,1.63,22.4,22.4,0,0,1,2.36,1.77,4.61,4.61,0,0,1,1.64,2.71,3.65,3.65,0,0,1-1.14,2.87A5,5,0,0,1,30,195.31a5.16,5.16,0,0,1-2.46.15,7,7,0,0,1-1.94-.62,10.77,10.77,0,0,1-1.34-.77A7.7,7.7,0,0,1,23.16,193.24Z" style="fill:#1e1e1c"/><path d="M61.16,210.24s-3-8.75-10.5-2.25-1,21.25,12.25,23.25,29.32,1.38,41-10.58c0,0,20.5,3.83,8-24.67,0,0-15.75-3.25-21.25-.75S73.16,214,66.91,214.74c0,0-9,2.93-11.75-1.54S60.16,208,61.16,210.24Z" style="fill:#1e1e1c"/><line x1="95.38" y1="147.99" x2="111.66" y2="147.99" style="fill:none;stroke:#1e1e1c;stroke-miterlimit:10"/><path d="M157.41,65.74l2.23-.17c1.42-.11,3.43-.34,5.84-.65a68.66,68.66,0,0,0,8.12-1.57A31.81,31.81,0,0,0,178,61.88a13.73,13.73,0,0,0,4-2.43,5.13,5.13,0,0,0,1.85-3.88c0-.36-.07-.74-.12-1.09s-.16-.79-.28-1.14a11.38,11.38,0,0,0-.79-2.07,5.42,5.42,0,0,0-2.88-2.75,6.25,6.25,0,0,0-3.68,0,16.59,16.59,0,0,0-5.17,2.6,19.61,19.61,0,0,0-1.74,1.4l.4-.42c.27-.27.67-.67,1.21-1.13a19.11,19.11,0,0,1,2.08-1.53,12.69,12.69,0,0,1,3-1.46,6.88,6.88,0,0,1,4.07-.15,5.94,5.94,0,0,1,3.42,3,12.27,12.27,0,0,1,.89,2.24c.13.4.2.77.3,1.16a12.27,12.27,0,0,1,.16,1.28,6.09,6.09,0,0,1-2.11,4.63,14.63,14.63,0,0,1-4.29,2.56,32.58,32.58,0,0,1-4.54,1.44,42.19,42.19,0,0,1-4.34.83c-1.39.2-2.71.35-3.93.46-2.44.23-4.47.26-5.9.29S157.41,65.74,157.41,65.74Z" style="fill:#1e1e1c"/><path d="M225.91,10.24a7,7,0,0,1,1,.3c.31.13.69.27,1.11.48a11,11,0,0,1,1.38.77,14.32,14.32,0,0,1,1.51,1.11,13.73,13.73,0,0,1,1.51,1.47,15.12,15.12,0,0,1,1.39,1.77c.43.64.79,1.33,1.17,2s.64,1.43.86,2.16.45,1.45.58,2.17l.34,2.06c0,.66.07,1.29.09,1.86l0,.83c0,.26,0,.51-.05.74l-.09,1.21c-.05.67-.1,1-.1,1s0-.38-.1-1c0-.33-.05-.73-.09-1.19a12.77,12.77,0,0,0-.18-1.53l-.26-1.8-.45-2c-.15-.68-.44-1.35-.64-2.05s-.57-1.35-.85-2-.68-1.31-1.08-1.92a19.58,19.58,0,0,0-2.59-3.22c-.46-.44-.91-.85-1.35-1.2s-.85-.66-1.23-.92-.73-.46-1-.63C226.26,10.39,225.91,10.24,225.91,10.24Z" style="fill:#1e1e1c"/><path d="M255.75,111s11.22,16.75,16.31,10,1.34-11.67,1.34-11.67,8,13.07,16,10.12,1.75-11.7,1.75-11.7,7.5,13.25,17.25,12.75,7.83-11.17,7.83-11.17" style="fill:none;stroke:#1e1e1c;stroke-miterlimit:10"/><path d="M279,134a5.76,5.76,0,0,1,.88.06,12.16,12.16,0,0,1,2.29.52,14.05,14.05,0,0,1,1.47.57,13.55,13.55,0,0,1,1.55.86l.78.52c.25.19.5.4.74.61a15.5,15.5,0,0,1,1.41,1.37c.44.49.8,1,1.2,1.55s.64,1.11.94,1.64l.68,1.63a15.64,15.64,0,0,1,.44,1.51,7.11,7.11,0,0,1,.28,1.29l.14,1c.07.56.1.88.1.88s-.11-.31-.29-.83l-.31-1a11.61,11.61,0,0,0-.46-1.21c-.19-.43-.35-.92-.59-1.4l-.77-1.5-1-1.51c-.38-.47-.74-1-1.15-1.44a14.36,14.36,0,0,0-1.29-1.3l-.68-.6-.71-.53c-.46-.36-1-.63-1.4-.93s-.91-.52-1.34-.7a16.13,16.13,0,0,0-2.12-.86C279.33,134.06,279,134,279,134Z" style="fill:#1e1e1c"/><path d="M141.41,190.74s38.5-4.92,65.5,52.92" style="fill:none;stroke:#1e1e1c;stroke-miterlimit:10"/><path d="M204.57,108.53a4,4,0,0,1,.75,0,7.7,7.7,0,0,1,1.94.49,7.17,7.17,0,0,1,1.2.63,7.42,7.42,0,0,1,1.21.92,9.83,9.83,0,0,1,1.09,1.21,10.77,10.77,0,0,1,.88,1.42,9.26,9.26,0,0,1,.65,1.53,8.63,8.63,0,0,1,.43,1.54,11.35,11.35,0,0,1,.24,1.47c0,.47.07.91.09,1.32a17.67,17.67,0,0,1-.07,2c0,.47-.07.74-.07.74s-.06-.27-.13-.73-.15-1.14-.31-1.92c-.08-.39-.17-.81-.25-1.26s-.25-.9-.36-1.37a10.77,10.77,0,0,0-.48-1.43,8.71,8.71,0,0,0-.63-1.41,9.77,9.77,0,0,0-.78-1.32,12.52,12.52,0,0,0-.93-1.15,9.52,9.52,0,0,0-1-.94,10,10,0,0,0-1-.72c-.34-.19-.65-.37-.95-.5a7.2,7.2,0,0,0-.78-.31A7.35,7.35,0,0,0,204.57,108.53Z" style="fill:#1e1e1c"/><path d="M171.41,83.74s.23.59.61,1.42c.19.41.43.88.69,1.37a14.65,14.65,0,0,0,.92,1.47,13.11,13.11,0,0,0,1.06,1.36c.18.22.38.39.55.58s.35.35.52.51c.32.32.62.56.83.74l.32.29-.42-.12a5.07,5.07,0,0,1-1.06-.45,4.08,4.08,0,0,1-.67-.4,5.35,5.35,0,0,1-.69-.53,6.23,6.23,0,0,1-.67-.66,8.31,8.31,0,0,1-.6-.76,8.07,8.07,0,0,1-1.34-3.24A5.11,5.11,0,0,1,171.41,83.74Z" style="fill:#1e1e1c"/><path d="M184.28,84.74s.31.56.83,1.32c.26.38.58.8.94,1.23.17.22.38.43.57.65s.41.42.63.63a17.4,17.4,0,0,0,1.33,1.15l.66.48c.21.16.42.28.61.42.38.27.71.46.94.62l.36.25-.44-.07a5.8,5.8,0,0,1-1.13-.29,5.23,5.23,0,0,1-.73-.28c-.25-.12-.52-.24-.78-.4s-.53-.33-.78-.52-.51-.4-.74-.63a8.35,8.35,0,0,1-1.22-1.48,7,7,0,0,1-.44-.76,6.75,6.75,0,0,1-.31-.72A4.81,4.81,0,0,1,184.28,84.74Z" style="fill:#1e1e1c"/><path d="M194.91,87.32s.31.3.7.74.9,1,1.42,1.54a11.7,11.7,0,0,0,1.54,1.33c.23.16.44.3.6.39l.24.16a2.74,2.74,0,0,1-1.06,0,2.51,2.51,0,0,1-.5-.15,2.74,2.74,0,0,1-.53-.25,4.9,4.9,0,0,1-1-.76,5.72,5.72,0,0,1-.75-1,4.8,4.8,0,0,1-.45-1A3.44,3.44,0,0,1,194.91,87.32Z" style="fill:#1e1e1c"/><path d="M204.57,88.11s.2.36.52.8a7.31,7.31,0,0,0,.56.69,5,5,0,0,0,.72.64,6,6,0,0,0,.82.52c.29.13.57.27.83.36s.48.18.64.25l.25.11-.26.09a2.64,2.64,0,0,1-.72.12,3.35,3.35,0,0,1-1-.1c-.18-.07-.38-.12-.57-.21a6.34,6.34,0,0,1-.54-.33,3.33,3.33,0,0,1-.83-.93,2.93,2.93,0,0,1-.37-1A2.15,2.15,0,0,1,204.57,88.11Z" style="fill:#1e1e1c"/><path d="M331.41,243.65s11.55-8,6.5-33.67c0,0,37.5-3,44.5-44.5s24-11.79,31-42.9" style="fill:none;stroke:#1e1e1c;stroke-miterlimit:10"/><path d="M393.91,172.35a20.15,20.15,0,0,1,1.77-2.33,18.47,18.47,0,0,1,5-4.14,8.93,8.93,0,0,1,1.7-.67,4.7,4.7,0,0,1,1.82-.17,3.38,3.38,0,0,1,1.64.58,3,3,0,0,1,.61.51,3.11,3.11,0,0,1,.45.57,4.93,4.93,0,0,1,.57,1.1c.11.35.23.64.28.89.11.51.16.79.16.79s-.14-.26-.34-.72c-.1-.23-.27-.49-.43-.79a5.44,5.44,0,0,0-.31-.45,2.79,2.79,0,0,0-.37-.46,2.48,2.48,0,0,0-.46-.43,2.56,2.56,0,0,0-.54-.37,2.92,2.92,0,0,0-1.32-.34,4.36,4.36,0,0,0-1.49.22,8.25,8.25,0,0,0-1.5.63,20.38,20.38,0,0,0-2.78,1.8c-.85.65-1.62,1.3-2.28,1.86s-1.21,1-1.58,1.39Z" style="fill:#1e1e1c"/><path d="M383.91,224.49s15.5.44,21.5-5.78,6.1.22,6.1,0S414.41,230.74,383.91,224.49Z" style="fill:none;stroke:#1e1e1c;stroke-miterlimit:10"/><path d="M385.25,224.76A17.09,17.09,0,0,1,393.9,229c3.5,3.5,10,3.5,10,3.5s10.85-1.11,6.93-10.43C410.83,222.06,407.1,229.52,385.25,224.76Z" style="fill:none;stroke:#1e1e1c;stroke-miterlimit:10"/><path d="M368.79,115.17s-.53,0-1.44,0a33.31,33.31,0,0,1-3.8-.33c-.78-.11-1.63-.27-2.52-.45a28.17,28.17,0,0,1-2.77-.72,27.63,27.63,0,0,1-2.88-1.07,25,25,0,0,1-2.83-1.47,20.35,20.35,0,0,1-2.59-1.88A15.58,15.58,0,0,1,347.8,107a13,13,0,0,1-1.56-2.45,14,14,0,0,1-.95-2.41,13.63,13.63,0,0,1-.47-2.12c-.05-.65-.13-1.2-.14-1.66,0-.92,0-1.45,0-1.45l.18,1.43c.06.45.19,1,.31,1.61s.34,1.3.64,2a13.38,13.38,0,0,0,1.06,2.24,15.6,15.6,0,0,0,1.6,2.24,17,17,0,0,0,2.09,2.07,19.44,19.44,0,0,0,2.48,1.76,23.91,23.91,0,0,0,2.7,1.44c.93.41,1.85.8,2.77,1.11a40.93,40.93,0,0,0,5.11,1.46c1.53.32,2.81.57,3.72.69S368.79,115.17,368.79,115.17Z" style="fill:#1e1e1c"/><path d="M337.91,115.17s4.76,21,29.13,18.26l-.13,6.63S345.41,145.42,337.91,115.17Z" style="fill:none;stroke:#1e1e1c;stroke-miterlimit:10"/><path d="M141,133.26s37.36,2,40.61-1.52,20-22.42,20-22.42H152.57s-6.92,2.42-11.67.17Z" style="fill:#1e1e1c"/><path d="M156.16,92.11a23,23,0,0,1-1.69,4.18,14.86,14.86,0,0,1-1.2,1.93,7.1,7.1,0,0,1-1.64,1.64,3.86,3.86,0,0,1-1.08.53,2.22,2.22,0,0,1-.6.13,2.42,2.42,0,0,1-.62,0,3.41,3.41,0,0,1-1.18-.33,4.59,4.59,0,0,1-1-.64,7.36,7.36,0,0,1-.86-.81c-.27-.28-.5-.59-.74-.9a22.48,22.48,0,0,1-1.24-1.94l-.42-.72.86.12a5.8,5.8,0,0,0,2.34-.12,3.22,3.22,0,0,0,1-.49,2.86,2.86,0,0,0,.74-.81l.24-.51.15-.55a8.45,8.45,0,0,0,.11-1.2,15.87,15.87,0,0,0-.11-2.49,9.55,9.55,0,0,0-.56-2.38,5.78,5.78,0,0,0-.52-1.06l-.33-.47-.39-.41a3.68,3.68,0,0,0-.94-.6,2.16,2.16,0,0,0-.53-.18,1.88,1.88,0,0,0-.56-.1,4.84,4.84,0,0,0-1.17,0c-.4,0-.79.15-1.19.22l-.95.16.4-.81a58.09,58.09,0,0,1,3.33-6,24.74,24.74,0,0,1,2-2.77,8.61,8.61,0,0,1,2.69-2.27,2.71,2.71,0,0,1,.93-.24h.4l.1,0,.42.09a7.28,7.28,0,0,1,.83.19l.84.33a3.42,3.42,0,0,1,.77.43,5.79,5.79,0,0,1,.72.51,7.79,7.79,0,0,1,1.17,1.29l.49.71a7.06,7.06,0,0,1,.4.76,9.24,9.24,0,0,1,.67,1.57,12.82,12.82,0,0,1,.5,1.63l.38,1.66-.5-1.62a15.2,15.2,0,0,0-.59-1.58,9,9,0,0,0-.74-1.5,7,7,0,0,0-.42-.72l-.51-.66a7.5,7.5,0,0,0-1.16-1.16,5.48,5.48,0,0,0-.68-.44,3,3,0,0,0-.71-.37l-.74-.27a7,7,0,0,0-.82-.16l-.42-.07-.1,0h0s0,0,0,0h-.21a2.07,2.07,0,0,0-.69.21,8,8,0,0,0-2.37,2.16c-.68.87-1.31,1.79-1.91,2.73a57.1,57.1,0,0,0-3.21,5.9l-.55-.65a12.61,12.61,0,0,1,1.33-.26,5.78,5.78,0,0,1,1.39,0,2.59,2.59,0,0,1,.7.12,3,3,0,0,1,.68.22,4.67,4.67,0,0,1,1.22.77l.49.52c.14.19.27.39.4.58a6.73,6.73,0,0,1,.59,1.24,10.47,10.47,0,0,1,.59,2.61,16.71,16.71,0,0,1,.08,2.63,9.2,9.2,0,0,1-.14,1.35l-.2.68c-.1.22-.21.43-.31.65a3.76,3.76,0,0,1-1,1.06,4.08,4.08,0,0,1-1.29.6,5.75,5.75,0,0,1-1.37.2,6.19,6.19,0,0,1-1.37-.11l.44-.6a21.74,21.74,0,0,0,1.13,1.89c.22.29.43.59.67.86a6.61,6.61,0,0,0,.76.76,3.94,3.94,0,0,0,.86.59,2.8,2.8,0,0,0,1,.3,1.88,1.88,0,0,0,.5,0,1.73,1.73,0,0,0,.5-.09,3.34,3.34,0,0,0,.95-.43,10,10,0,0,0,2.88-3.28A26.83,26.83,0,0,0,156.16,92.11Z" style="fill:#1e1e1c"/><path d="M142.91,83.74A14.32,14.32,0,0,1,145,82.18a12.75,12.75,0,0,1,5.46-2,7,7,0,0,1,1.65.09,4.61,4.61,0,0,1,1.53.55,4.24,4.24,0,0,1,1.18,1,4.87,4.87,0,0,1,.72,1.11,5.45,5.45,0,0,1,.38,1c.07.32.15.58.17.81.06.46.08.71.08.71s-.11-.24-.27-.66c-.07-.21-.21-.45-.33-.73a9.39,9.39,0,0,0-.53-.87,5.63,5.63,0,0,0-.76-.88,4.22,4.22,0,0,0-1-.7,4.42,4.42,0,0,0-1.28-.38,6.23,6.23,0,0,0-1.42,0,12.85,12.85,0,0,0-2.83.57c-.9.28-1.72.6-2.43.89s-1.3.55-1.7.75Z" style="fill:#1e1e1c"/><path d="M123.91,12a16,16,0,0,1,.47-3.34,16,16,0,0,1,1.17-3.3A11.36,11.36,0,0,1,127.91,2,8.29,8.29,0,0,1,129.64.8a6.82,6.82,0,0,1,1.94-.68,7.23,7.23,0,0,1,1.9-.11,9.16,9.16,0,0,1,1.66.27,9.86,9.86,0,0,1,1.32.46,10.52,10.52,0,0,1,1,.45c.52.28.81.45.81.45l-.88-.27a10.23,10.23,0,0,0-1-.27C136,1,135.5,1,135,.85a9.08,9.08,0,0,0-3.26.14,6.83,6.83,0,0,0-1.67.67,7.34,7.34,0,0,0-1.51,1.1,10.12,10.12,0,0,0-1.26,1.42,14.65,14.65,0,0,0-1,1.57,22.66,22.66,0,0,0-1.4,3.06c-.35.93-.62,1.72-.77,2.29Z" style="fill:#1e1e1c"/><path d="M132.91,12a9.28,9.28,0,0,1,.14-1,17,17,0,0,1,.69-2.54,13.17,13.17,0,0,1,1.74-3.34,9.5,9.5,0,0,1,1.48-1.6,7.77,7.77,0,0,1,2-1.17,7.13,7.13,0,0,1,2.26-.42,7.83,7.83,0,0,1,2.17.3,10.74,10.74,0,0,1,1.88.73,12.84,12.84,0,0,1,1.53.91,11.1,11.1,0,0,1,1.19.9,11.42,11.42,0,0,1,.86.75c.46.43.72.69.72.69s-.31-.19-.84-.53a22.72,22.72,0,0,0-2.23-1.3c-.46-.26-1-.48-1.54-.72a13.36,13.36,0,0,0-1.78-.55,8.11,8.11,0,0,0-1.94-.19,6.19,6.19,0,0,0-1.93.39,7.7,7.7,0,0,0-3.11,2.38,16.26,16.26,0,0,0-1.91,3,23.53,23.53,0,0,0-1,2.37C133,11.64,132.91,12,132.91,12Z" style="fill:#1e1e1c"/><path d="M138.24,14.32a11.63,11.63,0,0,1,2.13-1.95A10.35,10.35,0,0,1,143,11a7.4,7.4,0,0,1,1.72-.36,5.73,5.73,0,0,1,1.85.2,5.3,5.3,0,0,1,1.65.9A6.11,6.11,0,0,1,149.42,13a7.8,7.8,0,0,1,.74,1.43,9.24,9.24,0,0,1,.44,1.35,8.83,8.83,0,0,1,.24,1.16c.07.35.1.65.12.9.05.5.06.79.06.79s-.1-.27-.26-.75c-.07-.24-.16-.53-.29-.85s-.25-.69-.43-1.07-.36-.8-.57-1.22a9.77,9.77,0,0,0-.79-1.24,6.26,6.26,0,0,0-1.05-1.09,4.4,4.4,0,0,0-1.34-.69,5.53,5.53,0,0,0-3,.05,13.48,13.48,0,0,0-2.62,1.06,20.18,20.18,0,0,0-1.77,1Z" style="fill:#1e1e1c"/><path d="M138.24,21.65a11,11,0,0,1,2.26-1.52,10.66,10.66,0,0,1,2.66-1,7.94,7.94,0,0,1,1.63-.18,6.41,6.41,0,0,1,1.71.23,5.35,5.35,0,0,1,1.58.75,5.46,5.46,0,0,1,1.22,1.15,6.88,6.88,0,0,1,.81,1.3,7.65,7.65,0,0,1,.48,1.26,6.74,6.74,0,0,1,.26,1.09,8,8,0,0,1,.13.85c0,.47.06.74.06.74s-.1-.26-.25-.7a14.93,14.93,0,0,0-.73-1.78,11.41,11.41,0,0,0-.6-1.1,8.32,8.32,0,0,0-.82-1.09,5.11,5.11,0,0,0-2.4-1.5,7,7,0,0,0-2.91-.15,15,15,0,0,0-2.59.63c-.75.26-1.38.49-1.8.69Z" style="fill:#1e1e1c"/><path d="M322,198.66c1.53,6.57,13.92,11,13.92,11S323.8,201,324,196.4" style="fill:none;stroke:#1e1e1c;stroke-miterlimit:10"/><path d="M337.91,210s-11.8,5.57-18.56-8.88" style="fill:none;stroke:#1e1e1c;stroke-miterlimit:10"/><path d="M206.66,193.12l.17-6.21-.17,12.42h12.5s-10.67,6.76-10.5,14.55" style="fill:none;stroke:#1e1e1c;stroke-miterlimit:10"/><path d="M255.57,7.49H367.24V47.91h26.67l19.5,68.54H367L366.57,160H316.24V87.32H263s2.66-2.64-2.4-16.11c0,0,.45-1.16,2.27-.22,0,0,9.08,5.25,9.17-5.25,0,0-2.31-12.33-12.86-8.91L255.57,60V7.49Z" style="fill:none;stroke:#1e1e1c;stroke-miterlimit:10;stroke-width:3px"/><path d="M197.4,33.53s-33.16-16.37-54.5,1.71" style="fill:none;stroke:#1e1e1c;stroke-miterlimit:10"/><path d="M269.43,59.78s12.23.23,12.73-10.28c0,0,11.75,2,16.25-6a14.12,14.12,0,0,0,0-14.53s10.16,11.75,17.83,4.25,24.67,3.75,26.42-14,19.41,8.25,24.58-11.75H255.57V60S263.2,50.83,269.43,59.78Z" style="fill:#1e1e1c"/><polygon points="227.99 40.63 255.57 61.52 226.82 42.26 227.99 40.63" style="fill:#1e1e1c"/><polygon points="202.02 43.53 214.03 26.96 218.73 28.31 205.1 45.89 202.02 43.53" style="fill:none"/><polygon points="207.66 47.23 221.31 29.4 223.79 30.86 210.38 48.24 207.66 47.23" style="fill:none"/><path d="M221.58,199.3s31.53-1.75,39.78,0,15.75,6.16,16.5,11.83,10.25,6.42,10.5,8.67,10.5,10.89,7.5,23.94h-5.75s-5.5-5.44-5.75-9.19-3,7.14,1.1,9.19H274.61s-10.2-5.94-9.6-15.19c0,0-3.29,11.13,5.66,15.19H252.36s-8.75-8.19-7.75-17.19a23.14,23.14,0,0,0,2.75,17.19h-2.75s-7.5-9.69-4.25-17.69c0,0-6.25,6.63.25,17.69H219.24l-.08-44.33Z" style="fill:#1e1e1c"/></g></g></svg>